<?xml version="1.0" encoding="UTF-8" standalone="no"?>
<!DOCTYPE svg PUBLIC "-//W3C//DTD SVG 1.1//EN" "http://www.w3.org/Graphics/SVG/1.1/DTD/svg11.dtd">
<svg width="100%" height="100%" viewBox="0 0 500 500" version="1.1" xmlns="http://www.w3.org/2000/svg" xmlns:xlink="http://www.w3.org/1999/xlink" xml:space="preserve" xmlns:serif="http://www.serif.com/" style="fill-rule:evenodd;clip-rule:evenodd;stroke-linejoin:round;stroke-miterlimit:2;">
    <g transform="matrix(1,0,0,1,221.668,331.955)">
        <g>
            <g>
                <path d="M-14.208,-122.708C-19.26,-128.75 -21.792,-134.75 -21.792,-140.708C-21.792,-146.677 -20.401,-151.823 -17.625,-156.146C-14.844,-160.479 -10.354,-164.151 -4.146,-167.167C2.047,-170.193 9.063,-171.708 16.896,-171.708L117.333,-171.708C122.385,-171.708 127.979,-172.193 134.104,-173.167C140.229,-174.151 144.51,-175.13 146.958,-176.104L146.958,-145.25L144.521,-145.5L144.521,-149.667C144.521,-153.583 143.13,-156.964 140.354,-159.812C137.573,-162.672 134.313,-164.187 130.563,-164.354L84.021,-164.354L84.021,-17.646C84.188,-11.755 86.797,-7.344 91.854,-4.417C94.297,-3.109 96.906,-2.458 99.688,-2.458L102.875,-2.458L102.875,0L49.229,0L49.229,-2.458L52.417,-2.458C56.667,-2.458 60.297,-3.922 63.313,-6.854C66.339,-9.797 67.938,-13.312 68.104,-17.396L68.104,-164.354L16.896,-164.354C3.839,-164.354 -5.625,-160.187 -11.5,-151.854C-14.609,-147.615 -16.167,-143.172 -16.167,-138.521C-16.167,-133.865 -14.859,-129.005 -12.25,-123.937L-14.208,-122.708Z" style="fill:rgb(214,165,52);fill-rule:nonzero;"/>
            </g>
        </g>
    </g>
    <g transform="matrix(1,0,0,1,106.771,326.981)">
        <g>
            <g>
                <path d="M199.833,-231.042C205.677,-234.984 212.635,-238.073 220.708,-240.312C228.792,-242.547 235.323,-243.667 240.313,-243.667L249.854,-243.667L249.854,-241.083C241.771,-240.75 234.198,-239.156 227.146,-236.312C220.104,-233.479 214.302,-230.214 209.75,-226.521C205.193,-222.823 200.76,-217.922 196.458,-211.812C192.167,-205.714 188.859,-200.51 186.542,-196.208C184.219,-191.917 181.521,-186.422 178.438,-179.729L106.75,-22.958C100.385,-9.026 97.208,-0.172 97.208,3.604L94.875,3.604L22.417,-161.667C20.01,-167.167 16.708,-171.25 12.5,-173.917C8.292,-176.583 4.031,-177.917 -0.271,-177.917L-2.333,-177.917L-2.333,-180.5L55.688,-180.5L55.688,-177.917L53.375,-177.917C48.208,-177.917 44.771,-175.51 43.063,-170.708C42.714,-169.667 42.542,-168.458 42.542,-167.083C42.542,-165.708 42.969,-163.99 43.833,-161.937L97.729,-26.812L161.667,-179.729C171.802,-203.615 184.526,-220.719 199.833,-231.042Z" style="fill:rgb(214,165,52);fill-rule:nonzero;"/>
            </g>
        </g>
    </g>
</svg>
