<?xml version="1.0" encoding="UTF-8" standalone="no"?>
<!DOCTYPE svg PUBLIC "-//W3C//DTD SVG 1.1//EN" "http://www.w3.org/Graphics/SVG/1.1/DTD/svg11.dtd">
<svg width="2258px" height="482px" version="1.1" xmlns="http://www.w3.org/2000/svg" xmlns:xlink="http://www.w3.org/1999/xlink" xml:space="preserve" xmlns:serif="http://www.serif.com/" style="fill-rule:evenodd;clip-rule:evenodd;">
    <g transform="matrix(1,0,0,1,-152.663,-259.135)">
        <g>
            <rect x="152.663" y="259.135" width="2237.41" height="481.729" style="fill:rgb(15,30,55);fill-rule:nonzero;"/>
        </g>
        <g transform="matrix(1,0,0,1,714.281,548.566)">
            <g>
                <path d="M11.705,-2.104C15.356,-2.104 18.486,-3.406 21.101,-6.021C23.71,-8.63 25.085,-11.76 25.226,-15.417L25.226,-132.688C25.085,-136.339 23.71,-139.427 21.101,-141.958C18.486,-144.5 15.356,-145.771 11.705,-145.771L8.955,-145.771L8.955,-147.896L73.184,-147.896L72.976,-145.771L70.434,-145.771C66.767,-145.771 63.59,-144.5 60.913,-141.958C58.247,-139.427 56.913,-136.339 56.913,-132.688L56.913,-15.417C56.913,-11.76 58.247,-8.63 60.913,-6.021C63.59,-3.406 66.767,-2.104 70.434,-2.104L72.976,-2.104L73.184,0L8.955,0L8.955,-2.104L11.705,-2.104Z" style="fill:white;fill-rule:nonzero;"/>
            </g>
        </g>
        <g transform="matrix(1,0,0,1,815.058,548.566)">
            <g>
                <path d="M200.163,-2.104L203.538,-2.104L203.538,0L140.142,0L140.142,-1.896L143.33,-1.896C145.715,-2.031 147.752,-3.021 149.434,-4.854C151.127,-6.688 151.835,-8.729 151.559,-10.979L143.33,-87.688L103.601,-19.229C98.392,-10.49 95.715,-2.672 95.58,4.229L93.455,4.229L39.163,-87.042L30.934,-10.979C30.642,-8.729 31.34,-6.651 33.038,-4.75C34.731,-2.844 36.773,-1.896 39.163,-1.896L42.33,-1.896L42.33,0L-1.816,0L-1.816,-2.104L1.559,-2.104C5.502,-2.104 8.919,-3.297 11.809,-5.688C14.695,-8.089 16.419,-11.333 16.976,-15.417L34.517,-150.854L36.413,-150.854L101.913,-43.104L164.872,-150.854L166.767,-150.854L184.726,-15.417C185.434,-11.333 187.231,-8.089 190.122,-5.688C193.007,-3.297 196.356,-2.104 200.163,-2.104Z" style="fill:white;fill-rule:nonzero;"/>
            </g>
        </g>
        <g transform="matrix(1,0,0,1,1035.62,548.566)">
            <g>
                <path d="M200.163,-2.104L203.538,-2.104L203.538,0L140.142,0L140.142,-1.896L143.33,-1.896C145.715,-2.031 147.752,-3.021 149.434,-4.854C151.127,-6.688 151.835,-8.729 151.559,-10.979L143.33,-87.688L103.601,-19.229C98.392,-10.49 95.715,-2.672 95.58,4.229L93.455,4.229L39.163,-87.042L30.934,-10.979C30.642,-8.729 31.34,-6.651 33.038,-4.75C34.731,-2.844 36.773,-1.896 39.163,-1.896L42.33,-1.896L42.33,0L-1.816,0L-1.816,-2.104L1.559,-2.104C5.502,-2.104 8.919,-3.297 11.809,-5.688C14.695,-8.089 16.419,-11.333 16.976,-15.417L34.517,-150.854L36.413,-150.854L101.913,-43.104L164.872,-150.854L166.767,-150.854L184.726,-15.417C185.434,-11.333 187.231,-8.089 190.122,-5.688C193.007,-3.297 196.356,-2.104 200.163,-2.104Z" style="fill:white;fill-rule:nonzero;"/>
            </g>
        </g>
        <g transform="matrix(1,0,0,1,1256.18,548.566)">
            <g>
                <path d="M32.934,-130.146C47.934,-143.948 68.142,-150.854 93.559,-150.854C118.986,-150.854 139.205,-143.948 154.205,-130.146C169.205,-116.339 176.705,-97.604 176.705,-73.938C176.705,-50.281 169.205,-31.552 154.205,-17.75C139.205,-3.943 118.986,2.958 93.559,2.958C68.142,2.958 47.934,-3.943 32.934,-17.75C17.934,-31.552 10.434,-50.281 10.434,-73.938C10.434,-97.604 17.934,-116.339 32.934,-130.146ZM58.059,-24.188C66.726,-12.005 78.523,-5.917 93.455,-5.917C108.382,-5.917 120.215,-12.005 128.955,-24.188C137.689,-36.365 142.059,-52.948 142.059,-73.938C142.059,-94.922 137.689,-111.505 128.955,-123.688C120.215,-135.88 108.382,-141.979 93.455,-141.979C78.523,-141.979 66.726,-135.88 58.059,-123.688C49.403,-111.505 45.08,-94.922 45.08,-73.938C45.08,-52.948 49.403,-36.365 58.059,-24.188Z" style="fill:white;fill-rule:nonzero;"/>
            </g>
        </g>
        <g transform="matrix(1,0,0,1,1460.9,548.566)">
            <g>
                <path d="M75.705,0L8.955,0L8.955,-2.104L11.705,-2.104C16.773,-2.104 20.648,-4.292 23.33,-8.667C24.455,-10.635 25.085,-12.818 25.226,-15.208L25.226,-132.688C25.085,-136.339 23.71,-139.427 21.101,-141.958C18.486,-144.5 15.356,-145.771 11.705,-145.771L8.955,-145.771L8.955,-147.896L70.226,-147.896C86.559,-147.896 99.544,-144.938 109.184,-139.021C118.835,-133.104 123.736,-124.021 123.892,-111.771C123.736,-105.563 122.398,-100.135 119.872,-95.5C115.215,-86.76 107.892,-81.76 97.892,-80.5C108.736,-79.51 117.684,-75.458 124.726,-68.333C131.767,-61.219 135.288,-52.172 135.288,-41.188C135.288,-27.948 129.965,-17.776 119.33,-10.667C108.705,-3.552 94.163,0 75.705,0ZM90.08,-109.021C89.939,-128.88 80.924,-138.813 63.038,-138.813L56.913,-138.813L56.913,-9.708L67.059,-9.708C76.767,-9.708 84.507,-12.526 90.288,-18.167C96.064,-23.802 98.955,-32.396 98.955,-43.938C98.955,-55.49 95.71,-64.083 89.226,-69.708C82.752,-75.344 74.377,-78.167 64.101,-78.167L64.101,-80.063C71.419,-80.063 77.544,-82.422 82.476,-87.146C87.403,-91.865 89.939,-99.156 90.08,-109.021Z" style="fill:white;fill-rule:nonzero;"/>
            </g>
        </g>
        <g transform="matrix(1,0,0,1,1622.52,548.566)">
            <g>
                <path d="M11.705,-2.104C15.356,-2.104 18.486,-3.406 21.101,-6.021C23.71,-8.63 25.085,-11.76 25.226,-15.417L25.226,-132.688C25.085,-136.339 23.71,-139.427 21.101,-141.958C18.486,-144.5 15.356,-145.771 11.705,-145.771L8.955,-145.771L8.955,-147.896L73.184,-147.896L72.976,-145.771L70.434,-145.771C66.767,-145.771 63.59,-144.5 60.913,-141.958C58.247,-139.427 56.913,-136.339 56.913,-132.688L56.913,-15.417C56.913,-11.76 58.247,-8.63 60.913,-6.021C63.59,-3.406 66.767,-2.104 70.434,-2.104L72.976,-2.104L73.184,0L8.955,0L8.955,-2.104L11.705,-2.104Z" style="fill:white;fill-rule:nonzero;"/>
            </g>
        </g>
        <g transform="matrix(1,0,0,1,1723.3,548.566)">
            <g>
                <path d="M11.705,-2.104C15.356,-2.104 18.486,-3.406 21.101,-6.021C23.71,-8.63 25.085,-11.76 25.226,-15.417L25.226,-132.458C25.085,-136.125 23.71,-139.255 21.101,-141.854C18.486,-144.464 15.356,-145.771 11.705,-145.771L8.955,-145.771L8.955,-147.896L73.184,-147.896L72.976,-145.771L70.434,-145.771C66.767,-145.771 63.59,-144.464 60.913,-141.854C58.247,-139.255 56.913,-136.125 56.913,-132.458L56.913,-9.083L84.58,-9.083C94.872,-9.083 103.502,-12.042 110.476,-17.958C117.445,-23.875 122.622,-32.255 125.997,-43.104L128.101,-43.104L118.392,0L8.955,0L8.955,-2.104L11.705,-2.104Z" style="fill:white;fill-rule:nonzero;"/>
            </g>
        </g>
        <g transform="matrix(1,0,0,1,1872.67,548.566)">
            <g>
                <path d="M11.705,-2.104C15.356,-2.104 18.486,-3.406 21.101,-6.021C23.71,-8.63 25.085,-11.76 25.226,-15.417L25.226,-132.688C25.085,-136.339 23.71,-139.427 21.101,-141.958C18.486,-144.5 15.356,-145.771 11.705,-145.771L8.955,-145.771L8.955,-147.896L73.184,-147.896L72.976,-145.771L70.434,-145.771C66.767,-145.771 63.59,-144.5 60.913,-141.958C58.247,-139.427 56.913,-136.339 56.913,-132.688L56.913,-15.417C56.913,-11.76 58.247,-8.63 60.913,-6.021C63.59,-3.406 66.767,-2.104 70.434,-2.104L72.976,-2.104L73.184,0L8.955,0L8.955,-2.104L11.705,-2.104Z" style="fill:white;fill-rule:nonzero;"/>
            </g>
        </g>
        <g transform="matrix(1,0,0,1,1973.44,548.566)">
            <g>
                <path d="M11.705,-2.104C15.356,-2.104 18.486,-3.406 21.101,-6.021C23.71,-8.63 25.085,-11.76 25.226,-15.417L25.226,-133.104C24.934,-136.771 23.877,-139.443 22.059,-141.125C18.669,-144.219 15.215,-145.771 11.705,-145.771L8.955,-145.771L8.955,-147.896L89.872,-147.896C96.773,-147.896 102.476,-148.422 106.976,-149.479C111.486,-150.531 114.236,-151.271 115.226,-151.688L115.226,-114.729L113.101,-114.938L113.101,-117.25C113.101,-125.984 109.861,-132.188 103.392,-135.854C100.294,-137.688 96.632,-138.672 92.413,-138.813L56.913,-138.813L56.913,-77.333L84.809,-77.333C90.017,-77.469 94.309,-79.26 97.684,-82.708C101.07,-86.167 102.767,-90.427 102.767,-95.5L102.767,-97.396L104.872,-97.396L104.872,-48.583L102.767,-48.583L102.767,-50.292C102.767,-55.5 101.106,-59.792 97.788,-63.167C94.481,-66.552 90.294,-68.318 85.226,-68.458L56.913,-68.458L56.913,-9.083L84.58,-9.083C94.872,-9.083 103.502,-12.042 110.476,-17.958C117.445,-23.875 122.622,-32.255 125.997,-43.104L128.101,-43.104L118.392,0L8.955,0L8.955,-2.104L11.705,-2.104Z" style="fill:white;fill-rule:nonzero;"/>
            </g>
        </g>
        <g transform="matrix(1,0,0,1,2125.98,548.566)">
            <g>
                <path d="M172.684,-145.771C167.752,-145.771 164.023,-143.656 161.497,-139.438C160.372,-137.604 159.731,-135.49 159.58,-133.104L159.58,-24.083C159.58,-14.651 160.215,-6.693 161.497,-0.208L162.122,2.958L160.226,2.958L53.538,-98.667L53.538,-14.792C53.538,-11.26 54.799,-8.26 57.33,-5.792C59.872,-3.333 62.898,-2.104 66.413,-2.104L70.434,-2.104L70.434,0L6.413,0L6.413,-2.104L10.226,-2.104C13.877,-2.104 16.976,-3.333 19.517,-5.792C22.059,-8.26 23.33,-11.333 23.33,-15L23.33,-124.646C23.33,-133.948 22.689,-141.698 21.413,-147.896L20.997,-151.063L22.892,-151.063L129.58,-49.438L129.58,-132.896C129.439,-136.547 128.101,-139.604 125.559,-142.063C123.028,-144.531 120.007,-145.771 116.497,-145.771L112.684,-145.771L112.684,-147.896L176.705,-147.896L176.705,-145.771L172.684,-145.771Z" style="fill:white;fill-rule:nonzero;"/>
            </g>
        </g>
        <rect x="166.715" y="276.198" width="452.844" height="447.604" style="fill:white;fill-rule:nonzero;"/>
        <g transform="matrix(1,0,0,1,365.424,614.117)">
            <g>
                <path d="M-16.837,-146.146C-22.863,-153.339 -25.878,-160.484 -25.878,-167.583C-25.878,-174.677 -24.222,-180.802 -20.92,-185.958C-17.613,-191.109 -12.264,-195.484 -4.878,-199.083C2.507,-202.677 10.872,-204.479 20.205,-204.479L139.788,-204.479C145.83,-204.479 152.497,-205.063 159.788,-206.229C167.08,-207.396 172.184,-208.563 175.101,-209.729L175.101,-172.979L172.184,-173.271L172.184,-178.229C172.184,-182.896 170.528,-186.927 167.226,-190.333C163.919,-193.734 160.028,-195.531 155.559,-195.729L100.122,-195.729L100.122,-21C100.314,-14 103.424,-8.75 109.455,-5.25C112.372,-3.693 115.481,-2.917 118.788,-2.917L122.58,-2.917L122.58,0L58.705,0L58.705,-2.917L62.497,-2.917C67.549,-2.917 71.877,-4.667 75.476,-8.167C79.07,-11.667 80.965,-15.844 81.163,-20.708L81.163,-195.729L20.205,-195.729C4.648,-195.729 -6.628,-190.771 -13.628,-180.854C-17.321,-175.797 -19.17,-170.5 -19.17,-164.958C-19.17,-159.417 -17.613,-153.63 -14.503,-147.604L-16.837,-146.146Z" style="fill:rgb(15,30,55);fill-rule:nonzero;"/>
            </g>
        </g>
        <g transform="matrix(1,0,0,1,222.479,608.492)">
            <g>
                <path d="M238.059,-275.125C245.017,-279.833 253.309,-283.51 262.934,-286.167C272.559,-288.833 280.335,-290.167 286.267,-290.167L297.622,-290.167L297.622,-287.104C288.007,-286.688 279.002,-284.792 270.601,-281.417C262.21,-278.042 255.299,-274.151 249.872,-269.75C244.455,-265.344 239.184,-259.51 234.059,-252.25C228.945,-244.984 225.007,-238.792 222.247,-233.667C219.481,-228.552 216.257,-222.005 212.58,-214.021L127.205,-27.333C119.632,-10.75 115.851,-0.208 115.851,4.292L113.08,4.292L26.809,-192.521C23.934,-199.073 19.986,-203.938 14.976,-207.104C9.96,-210.281 4.898,-211.875 -0.212,-211.875L-2.67,-211.875L-2.67,-214.938L66.413,-214.938L66.413,-211.875L63.642,-211.875C57.502,-211.875 53.413,-209.005 51.372,-203.271C50.955,-202.047 50.747,-200.615 50.747,-198.979C50.747,-197.339 51.257,-195.292 52.288,-192.833L116.455,-31.938L192.622,-214.021C204.689,-242.479 219.835,-262.844 238.059,-275.125Z" style="fill:rgb(214,165,52);fill-rule:nonzero;"/>
            </g>
        </g>
        <g transform="matrix(0.749952,4.28368e-05,-4.28368e-05,0.749952,493.598,619.459)">
            <path d="M0.082,6.667L2528.52,6.668" style="fill:none;fill-rule:nonzero;stroke:white;stroke-width:13.33px;"/>
        </g>
    </g>
</svg>

